<?xml version="1.0" encoding="UTF-8" standalone="no"?>
<!-- Created with Inkscape (http://www.inkscape.org/) -->

<svg
   width="152.75569mm"
   height="92.995758mm"
   viewBox="0 0 152.75569 92.995758"
   version="1.1"
   id="svg1"
   xml:space="preserve"
   xmlns:inkscape="http://www.inkscape.org/namespaces/inkscape"
   xmlns:sodipodi="http://sodipodi.sourceforge.net/DTD/sodipodi-0.dtd"
   xmlns="http://www.w3.org/2000/svg"
   xmlns:svg="http://www.w3.org/2000/svg"><sodipodi:namedview
     id="namedview1"
     pagecolor="#ffffff"
     bordercolor="#000000"
     borderopacity="0.25"
     inkscape:showpageshadow="2"
     inkscape:pageopacity="0.0"
     inkscape:pagecheckerboard="0"
     inkscape:deskcolor="#d1d1d1"
     inkscape:document-units="mm" /><defs
     id="defs1"><style
       id="style1">.cls-1{fill:#fff;}.cls-2{fill:#543e92;}.cls-3{fill:#69c0af;}.cls-4{fill:none;stroke:#543e92;stroke-miterlimit:10;stroke-width:4.57px;}</style></defs><g
     inkscape:label="Layer 1"
     inkscape:groupmode="layer"
     id="layer1"
     transform="translate(-26.304112,-107.93144)"><g
       id="g1"
       transform="matrix(0.26458333,0,0,0.26458333,-159.68888,-116.08333)"><path
         class="cls-2"
         d="M 996.66,1046.94 V 851.37 l 55.06,-4.7 v 200.27 z"
         id="path1"
         inkscape:export-filename="path1.png"
         inkscape:export-xdpi="95.568001"
         inkscape:export-ydpi="95.568001" /><path
         class="cls-2"
         d="M 1066.31,1046.94 V 851.37 l 55.06,-4.7 v 200.27 z"
         id="path2" /><path
         class="cls-2"
         d="m 982.07,1010 h -54.62 v -24.59 q -5.45,16.44 -17.32,25.59 -11.87,9.15 -25.4,9.17 a 37,37 0 0 1 -23.42,-8.37 q -10.65,-8.37 -17.1,-24.66 -6.45,-16.29 -6.46,-39.94 0,-17.91 4.62,-31.41 a 70,70 0 0 1 12.19,-22.54 52.16,52.16 0 0 1 16.73,-13.58 41.19,41.19 0 0 1 18.43,-4.55 q 13.37,0 24,9.54 10.63,9.54 13.73,28.92 V 880.14 L 982.07,875 Z M 904.4,973 a 19.76,19.76 0 0 0 10.72,-3.38 24.82,24.82 0 0 0 8.73,-10.5 q 3.45,-7.11 3.46,-18.27 l 0.14,-7.64 a 36.13,36.13 0 0 0 -14,-3.09 28.43,28.43 0 0 0 -19.6,7.13 q -8,7.13 -8,16.37 a 19.67,19.67 0 0 0 2.21,8.73 20.79,20.79 0 0 0 6.31,7.56 16.12,16.12 0 0 0 10.03,3.02 z"
         id="path3" /><path
         class="cls-2"
         d="m 1280.28,1010 h -54.62 v -24.59 q -5.43,16.44 -17.32,25.62 -11.89,9.18 -25.4,9.17 a 37,37 0 0 1 -23.42,-8.37 q -10.65,-8.37 -17.1,-24.66 -6.45,-16.29 -6.42,-39.94 0,-17.91 4.63,-31.41 a 70,70 0 0 1 12.18,-22.54 52.08,52.08 0 0 1 16.74,-13.58 41.15,41.15 0 0 1 18.42,-4.55 q 13.36,0 24,9.54 10.64,9.54 13.72,28.92 v -33.47 l 54.62,-5.14 z m -77.66,-37 a 19.73,19.73 0 0 0 10.71,-3.38 24.9,24.9 0 0 0 8.74,-10.5 q 3.43,-7.11 3.45,-18.27 l 0.14,-7.64 a 36.13,36.13 0 0 0 -13.94,-3.09 28.42,28.42 0 0 0 -19.6,7.13 q -8,7.13 -8,16.37 a 19.67,19.67 0 0 0 2.21,8.73 20.79,20.79 0 0 0 6.31,7.56 16.15,16.15 0 0 0 9.98,3.02 z"
         id="path4" /><path
         class="cls-2"
         d="m 768.16,1046.94 a 142.8,142.8 0 0 1 -53.73,-10.3 l 0.16,-47.17 c 18.15,14.54 43.36,16.07 66.56,14.37 7.42,-0.54 16.06,-2.16 19.35,-8.83 2.86,-5.78 -0.6,-13.73 -6.77,-15.58 -6.91,-2.07 -13.74,2.72 -19.92,6.43 -10,6 -23,9.56 -33.06,3.6 -7.32,-4.36 -11.17,-12.73 -13.84,-20.82 -3.69,-11.15 -6,-22.71 -8.22,-34.24 -3.26,-13 -5.21,-26.58 -7.8,-39.78 l -3.89,-20.09 -2,-10 -0.94,-4.82 c -0.21,-1 -1.44,-4.29 -1,-5.2 0.76,-1.69 10.41,-1.47 12.59,-1.66 l 14.27,-1.28 28.08,-2.57 12.53,90.77 q 3.56,-43.11 10.91,-85.78 l 56.24,-5 -22,116.15 a 6.37,6.37 0 0 0 -0.09,2.91 6.92,6.92 0 0 0 2.49,3 40.91,40.91 0 0 1 1.92,60.55 c -11.52,11.15 -28.47,14.57 -44.48,15.21 q -3.7,0.19 -7.36,0.13 z"
         id="path5" /><path
         class="cls-3"
         d="m 1051.72,1198.15 c -89.64,0 -162.56,-72.92 -162.56,-162.56 h 54.73 a 107.83,107.83 0 1 0 215.65,0 h 54.74 c 0,89.64 -72.92,162.56 -162.56,162.56 z"
         id="path6" /></g></g></svg>
