<svg width="1215" height="1134" viewBox="0 0 1215 1134" fill="none" xmlns="http://www.w3.org/2000/svg">
<path d="M781.109 451.466L783.976 448.599L910.102 574.725L907.236 577.592L781.109 451.466Z" fill="#231F20"/>
<path d="M781.124 574.77L907.232 448.626L910.099 451.492L783.991 577.636L781.124 574.77Z" fill="#231F20"/>
<path d="M782.835 578.167L782.271 574.153C782.753 574.085 830.927 566.962 865.206 532.684C899.484 498.406 906.606 450.233 906.675 449.75L910.688 450.313C910.619 450.809 903.334 500.287 868.073 535.55C832.808 570.812 783.331 578.097 782.835 578.167Z" fill="#231F20"/>
<path d="M845.617 604.308C821.254 604.308 798.348 594.82 781.12 577.593C745.558 542.029 745.558 484.163 781.12 448.599C816.684 413.036 874.55 413.036 910.114 448.599C945.676 484.162 945.676 542.029 910.114 577.593C892.886 594.82 869.981 604.308 845.617 604.308ZM845.617 425.937C822.336 425.937 800.449 435.003 783.987 451.465C750.004 485.448 750.004 540.743 783.987 574.726C800.449 591.188 822.336 600.254 845.617 600.254C868.898 600.254 890.785 591.188 907.247 574.726L908.681 576.159L907.247 574.726C941.23 540.743 941.23 485.448 907.247 451.465C890.785 435.003 868.899 425.937 845.617 425.937Z" fill="#231F20"/>
<path d="M820.693 586.134C819.301 586.134 817.952 586.103 816.644 586.047C796.295 585.17 782.237 578.267 781.648 577.974L783.456 574.346C783.594 574.414 797.459 581.198 816.988 582.005C843.054 583.077 866.368 573.562 886.224 553.706C906.126 533.805 915.645 510.454 914.517 484.3C913.676 464.804 906.933 451.073 906.866 450.937L910.493 449.128C910.787 449.716 917.689 463.775 918.567 484.125C919.378 502.918 914.921 530.742 889.091 556.572C865.059 580.604 839.298 586.134 820.693 586.134Z" fill="#231F20"/>
<path d="M784.561 576.441L780.547 575.878C780.616 575.382 787.901 525.903 823.162 490.641C858.425 455.378 907.903 448.094 908.399 448.024L908.962 452.038C908.479 452.106 860.306 459.228 826.028 493.507C791.751 527.785 784.629 575.958 784.561 576.441Z" fill="#231F20"/>
<path d="M780.739 577.063C780.445 576.475 773.543 562.415 772.665 542.066C771.854 523.273 776.31 495.449 802.14 469.619C827.97 443.79 855.786 439.335 874.587 440.143C894.937 441.021 908.995 447.923 909.584 448.217L907.776 451.845C907.638 451.777 893.773 444.992 874.244 444.186C848.158 443.103 824.863 452.629 805.007 472.485C785.151 492.341 775.63 515.636 776.708 541.723C777.515 561.252 784.299 575.118 784.367 575.256L780.739 577.063Z" fill="#231F20"/>
<path d="M871.89 598.493C868.326 589.562 856.619 565.374 824.978 533.734C793.341 502.096 769.153 490.388 760.221 486.822L761.725 483.057C770.888 486.716 795.675 498.698 827.845 530.867C860.016 563.039 871.997 587.825 875.656 596.989L871.89 598.493Z" fill="#231F20"/>
<path d="M837.655 602.554C833.979 592.446 825.149 575.948 803.957 554.756C782.645 533.444 766.085 524.626 755.945 520.981L757.316 517.167C767.845 520.952 784.98 530.048 806.823 551.89C828.541 573.607 837.648 590.676 841.464 601.17L837.655 602.554Z" fill="#231F20"/>
<path d="M929.512 543.133C920.348 539.475 895.561 527.494 863.389 495.322C831.22 463.152 819.239 438.365 815.58 429.201L819.344 427.698C822.909 436.629 834.618 460.817 866.256 492.455C897.896 524.095 922.083 535.802 931.014 539.367L929.512 543.133Z" fill="#231F20"/>
<path d="M933.691 508.942C923.197 505.126 906.129 496.019 884.411 474.301C862.57 452.46 853.473 435.324 849.688 424.795L853.502 423.424C857.148 433.564 865.965 450.124 887.276 471.435C908.467 492.627 924.965 501.457 935.074 505.133L933.691 508.942Z" fill="#231F20"/>
<path d="M288.236 623.951H291.473V767.787H288.236V623.951Z" fill="#231F20"/>
<path d="M361.772 694.25V697.487H217.936V694.25H361.772Z" fill="#231F20"/>
<path d="M237.849 646.157L240.138 643.868L341.844 745.575L339.555 747.864L237.849 646.157Z" fill="#231F20"/>
<path d="M339.566 643.862L341.855 646.151L240.149 747.857L237.86 745.568L339.566 643.862Z" fill="#231F20"/>
<path d="M289.855 708.708C296.945 708.708 302.694 702.96 302.694 695.869C302.694 688.778 296.945 683.03 289.855 683.03C282.764 683.03 277.016 688.778 277.016 695.869C277.016 702.96 282.764 708.708 289.855 708.708Z" fill="#1D1743"/>
<path d="M59.7392 446.131L806.5 458.178L804.681 570.899C804.464 584.329 793.401 595.041 779.971 594.824L81.8452 583.561C68.4152 583.344 57.7032 572.281 57.9202 558.851L59.7392 446.131Z" fill="white"/>
<path d="M780.376 596.854C780.23 596.854 780.085 596.853 779.938 596.85L81.8121 585.587C74.7761 585.474 68.2041 582.627 63.3081 577.57C58.4121 572.513 55.7801 565.854 55.8931 558.818L57.7441 444.071L808.559 456.184L806.707 570.931C806.594 577.968 803.746 584.539 798.69 589.434C793.74 594.229 787.25 596.854 780.376 596.854ZM61.7331 448.19L59.9471 558.884C59.8511 564.838 62.0801 570.473 66.2211 574.752C70.3641 579.03 75.9241 581.439 81.8791 581.535L780.004 592.798C786.006 592.894 791.593 590.665 795.872 586.523C800.15 582.381 802.559 576.82 802.655 570.866L804.44 460.172L61.7331 448.19Z" fill="#231F20"/>
<path d="M346.749 483.677L518.428 486.447C538.475 486.77 554.463 503.284 554.14 523.33C553.817 543.377 537.303 559.365 517.257 559.042L345.578 556.272C325.531 555.949 309.543 539.435 309.866 519.389C310.189 499.342 326.702 483.353 346.749 483.677Z" fill="#5DFF87"/>
<path d="M517.859 561.073C517.647 561.073 517.437 561.071 517.225 561.068L345.546 558.298C324.413 557.957 307.498 540.487 307.839 519.356C308.177 498.435 325.307 481.645 346.154 481.645C346.364 481.645 346.571 481.647 346.781 481.65L518.46 484.42C528.697 484.585 538.257 488.727 545.379 496.082C552.5 503.437 556.331 513.126 556.166 523.363C556.001 533.599 551.859 543.159 544.504 550.281C537.302 557.254 527.859 561.073 517.859 561.073ZM346.155 485.699C327.51 485.699 312.194 500.712 311.891 519.422C311.586 538.319 326.712 553.941 345.611 554.246L517.289 557.016C526.436 557.141 535.107 553.737 541.685 547.369C548.262 541 551.966 532.452 552.114 523.298C552.261 514.144 548.836 505.48 542.468 498.902C536.099 492.325 527.55 488.621 518.397 488.473L346.718 485.703C346.529 485.7 346.342 485.699 346.155 485.699Z" fill="#231F20"/>
<path d="M85.5003 357.025L783.626 368.288C797.056 368.505 807.768 379.568 807.551 392.998L806.499 458.178L59.7373 446.131L60.7893 380.951C61.0073 367.521 72.0703 356.809 85.5003 357.025Z" fill="white"/>
<path d="M808.494 460.237L57.6787 448.124L58.7637 380.917C58.9957 366.535 70.7697 354.995 85.1017 354.995C85.2457 354.995 85.3887 354.996 85.5327 354.998L783.66 366.261C790.696 366.374 797.268 369.221 802.164 374.278C807.06 379.335 809.692 385.994 809.579 393.03L808.494 460.237ZM61.7977 444.137L804.506 456.119L805.526 392.965C805.622 387.011 803.393 381.376 799.252 377.097C795.109 372.819 789.549 370.41 783.595 370.314L85.4687 359.051C85.3467 359.049 85.2247 359.048 85.1037 359.048C72.9757 359.048 63.0137 368.813 62.8177 380.983L61.7977 444.137Z" fill="#231F20"/>
<path d="M114.261 416.391C122.071 416.391 128.402 410.06 128.402 402.25C128.402 394.44 122.071 388.109 114.261 388.109C106.451 388.109 100.12 394.44 100.12 402.25C100.12 410.06 106.451 416.391 114.261 416.391Z" fill="#231F20"/>
<path d="M114.269 418.417C114.179 418.417 114.09 418.416 114.001 418.415C109.683 418.346 105.649 416.599 102.646 413.496C99.6429 410.393 98.0269 406.307 98.0959 401.989C98.1649 397.671 99.9119 393.639 103.015 390.635C106.118 387.631 110.247 386.011 114.522 386.085C123.436 386.229 130.571 393.598 130.427 402.511C130.358 406.829 128.611 410.861 125.508 413.865C122.47 416.807 118.487 418.417 114.269 418.417ZM114.258 390.136C107.668 390.136 102.255 395.442 102.149 402.054C102.097 405.289 103.308 408.352 105.558 410.676C107.809 413.001 110.83 414.31 114.066 414.362C117.315 414.412 120.364 413.203 122.688 410.952C125.013 408.702 126.322 405.68 126.375 402.445L128.401 402.478L126.375 402.445C126.482 395.766 121.137 390.245 114.458 390.137C114.391 390.136 114.324 390.136 114.258 390.136Z" fill="#231F20"/>
<path d="M163.121 417.179C170.931 417.179 177.262 410.848 177.262 403.038C177.262 395.228 170.931 388.897 163.121 388.897C155.312 388.897 148.98 395.228 148.98 403.038C148.98 410.848 155.312 417.179 163.121 417.179Z" fill="#231F20"/>
<path d="M163.125 419.206C163.036 419.206 162.948 419.205 162.86 419.204C153.946 419.06 146.811 411.691 146.955 402.778C147.024 398.46 148.771 394.427 151.874 391.424C154.912 388.482 158.895 386.871 163.113 386.871C163.203 386.871 163.292 386.872 163.381 386.873C172.295 387.017 179.43 394.386 179.286 403.299C179.144 412.124 171.919 419.206 163.125 419.206ZM163.115 390.924C159.954 390.924 156.97 392.131 154.694 394.335C152.369 396.586 151.06 399.607 151.007 402.843C150.9 409.522 156.245 415.043 162.924 415.151C166.201 415.196 169.221 413.992 171.546 411.741C173.871 409.49 175.18 406.469 175.233 403.233C175.285 399.998 174.074 396.936 171.823 394.611C169.572 392.286 166.551 390.977 163.316 390.925C163.249 390.924 163.182 390.924 163.115 390.924Z" fill="#231F20"/>
<path d="M211.98 417.967C219.79 417.967 226.121 411.636 226.121 403.826C226.121 396.016 219.79 389.685 211.98 389.685C204.17 389.685 197.839 396.016 197.839 403.826C197.839 411.636 204.17 417.967 211.98 417.967Z" fill="#231F20"/>
<path d="M211.987 419.994C211.897 419.994 211.808 419.993 211.719 419.992C207.401 419.923 203.368 418.176 200.365 415.073C197.36 411.97 195.745 407.884 195.814 403.566C195.957 394.741 203.181 387.659 211.975 387.659C212.064 387.659 212.152 387.66 212.24 387.661C216.558 387.73 220.592 389.477 223.595 392.58C226.598 395.683 228.214 399.769 228.145 404.087L226.119 404.054L228.145 404.087C228.076 408.405 226.329 412.438 223.226 415.441C220.189 418.383 216.206 419.994 211.987 419.994ZM211.977 391.712C205.387 391.712 199.974 397.018 199.868 403.63C199.761 410.309 205.106 415.83 211.785 415.938C215.044 415.978 218.083 414.778 220.407 412.528C222.732 410.277 224.041 407.256 224.094 404.02C224.146 400.785 222.935 397.723 220.685 395.398C218.434 393.073 215.413 391.764 212.177 391.712C212.109 391.713 212.043 391.712 211.977 391.712Z" fill="#231F20"/>
<path d="M485.909 618.216L1152.91 603.76L1156.58 772.949C1156.87 786.378 1146.22 797.5 1132.79 797.791L514.419 811.193C500.99 811.484 489.868 800.834 489.577 787.405L485.909 618.216Z" fill="white"/>
<path d="M513.883 813.226C499.617 813.226 487.86 801.781 487.549 787.449L483.838 616.234L1154.89 601.69L1158.6 772.905C1158.75 779.941 1156.16 786.615 1151.29 791.698C1146.42 796.781 1139.87 799.665 1132.83 799.817L514.462 813.219C514.269 813.224 514.075 813.226 513.883 813.226ZM487.979 620.199L491.602 787.362C491.865 799.488 501.815 809.173 513.884 809.173C514.048 809.173 514.21 809.172 514.374 809.168L1132.74 795.766C1138.7 795.637 1144.24 793.197 1148.36 788.896C1152.48 784.595 1154.68 778.947 1154.55 772.994L1150.93 605.831L487.979 620.199Z" fill="#231F20"/>
<path d="M610.59 684.079L798.571 680.005C806.911 679.824 813.819 686.439 814 694.779L814.751 729.417C814.932 737.757 808.317 744.665 799.977 744.846L611.996 748.92C603.656 749.101 596.748 742.486 596.567 734.146L595.816 699.508C595.635 691.167 602.25 684.259 610.59 684.079Z" fill="white"/>
<path d="M611.663 750.95C602.388 750.951 594.743 743.509 594.54 734.19L593.79 699.551C593.586 690.107 601.102 682.257 610.546 682.052L610.59 684.078L610.546 682.052L798.527 677.978C803.081 677.894 807.441 679.567 810.747 682.732C814.053 685.897 815.927 690.16 816.026 694.734L816.776 729.373C816.98 738.817 809.464 746.667 800.02 746.872L612.04 750.946C611.914 750.949 611.788 750.95 611.663 750.95ZM610.634 686.105C603.425 686.261 597.687 692.254 597.843 699.463L598.593 734.102C598.748 741.215 604.584 746.897 611.664 746.897C611.76 746.897 611.855 746.896 611.952 746.894L799.932 742.82C807.141 742.664 812.879 736.671 812.723 729.462L811.973 694.823C811.898 691.33 810.466 688.076 807.943 685.66C805.419 683.243 802.064 681.933 798.615 682.031L610.634 686.105Z" fill="#231F20"/>
<path d="M843.218 679.037L1031.2 674.963C1039.54 674.782 1046.45 681.397 1046.63 689.737L1047.38 724.375C1047.56 732.715 1040.95 739.623 1032.61 739.804L844.624 743.878C836.284 744.059 829.376 737.444 829.195 729.104L828.444 694.466C828.263 686.125 834.878 679.218 843.218 679.037Z" fill="#5DFF87"/>
<path d="M844.286 745.909C839.851 745.909 835.66 744.228 832.447 741.151C829.141 737.986 827.267 733.723 827.168 729.149L826.417 694.511C826.213 685.067 833.729 677.217 843.174 677.012L1031.15 672.938C1040.6 672.744 1048.45 680.25 1048.65 689.694L1049.4 724.333C1049.5 728.908 1047.82 733.248 1044.65 736.553C1041.49 739.858 1037.22 741.733 1032.65 741.832L844.667 745.906C844.54 745.907 844.413 745.909 844.286 745.909ZM843.262 681.063C836.052 681.219 830.314 687.212 830.47 694.421L831.221 729.059C831.296 732.552 832.728 735.806 835.251 738.222C837.774 740.639 841.138 741.935 844.579 741.851L1032.56 737.777C1036.05 737.701 1039.31 736.27 1041.72 733.747C1044.14 731.224 1045.43 727.911 1045.35 724.418L1044.6 689.779C1044.45 682.666 1038.61 676.984 1031.53 676.984C1031.43 676.984 1031.34 676.985 1031.24 676.987L843.262 681.063Z" fill="#231F20"/>
<path d="M508.491 537.751L1126.86 524.349C1140.29 524.058 1151.41 534.708 1151.7 548.137L1152.91 603.76L485.907 618.216L484.701 562.593C484.412 549.164 495.062 538.042 508.491 537.751Z" fill="white"/>
<path d="M483.926 620.287L482.677 562.638C482.363 548.113 493.923 536.04 508.448 535.725L508.492 537.751L508.448 535.725L1126.82 522.323C1141.36 522.047 1153.42 533.569 1153.73 548.094L1154.98 605.743L483.926 620.287ZM1127.4 526.37C1127.23 526.37 1127.07 526.372 1126.91 526.375L508.536 539.777C496.246 540.043 486.464 550.259 486.73 562.549L487.891 616.146L1150.84 601.778L1149.68 548.181C1149.42 536.055 1139.47 526.37 1127.4 526.37Z" fill="#231F20"/>
<path d="M533.093 591.864C525.155 591.864 518.614 585.496 518.442 577.523C518.357 573.608 519.801 569.895 522.509 567.067C525.217 564.239 528.864 562.635 532.78 562.55C540.85 562.368 547.577 568.806 547.753 576.887C547.928 584.968 541.496 591.685 533.415 591.86C533.307 591.863 533.199 591.864 533.093 591.864ZM533.101 566.601C533.023 566.601 532.946 566.601 532.868 566.603C530.036 566.665 527.396 567.825 525.437 569.871C523.478 571.916 522.433 574.603 522.495 577.435C522.622 583.281 527.472 587.977 533.327 587.808C539.174 587.681 543.827 582.822 543.7 576.975C543.574 571.208 538.842 566.601 533.101 566.601Z" fill="#231F20"/>
<path d="M576.734 590.918C568.796 590.918 562.255 584.55 562.082 576.577C561.908 568.496 568.34 561.78 576.42 561.604C584.532 561.409 591.217 567.861 591.393 575.941C591.568 584.022 585.137 590.739 577.056 590.914C576.948 590.917 576.841 590.918 576.734 590.918ZM576.741 565.655C576.663 565.655 576.586 565.655 576.508 565.657C570.662 565.784 566.009 570.643 566.135 576.49C566.26 582.258 570.993 586.865 576.736 586.865C576.813 586.865 576.89 586.865 576.968 586.863C582.814 586.736 587.467 581.877 587.34 576.03C587.215 570.262 582.483 565.655 576.741 565.655Z" fill="#231F20"/>
<path d="M620.375 589.973C612.437 589.973 605.896 583.605 605.724 575.632C605.639 571.717 607.083 568.004 609.791 565.176C612.499 562.348 616.146 560.744 620.061 560.659C628.147 560.478 634.86 566.916 635.035 574.996C635.209 583.077 628.777 589.793 620.697 589.969C620.589 589.972 620.482 589.973 620.375 589.973ZM620.382 564.709C620.304 564.709 620.227 564.709 620.149 564.711C617.317 564.772 614.678 565.933 612.719 567.979C610.76 570.025 609.715 572.711 609.777 575.543C609.902 581.312 614.634 585.918 620.377 585.918C620.454 585.918 620.531 585.918 620.609 585.916C626.455 585.789 631.108 580.93 630.982 575.083C630.857 569.316 626.123 564.709 620.382 564.709Z" fill="#231F20"/>
<path d="M826.114 124.412L820.015 63.1299C819.01 53.0329 810.01 45.6619 799.913 46.6669L172.6 109.096C162.503 110.101 155.132 119.101 156.137 129.198L162.236 190.48L168.699 255.42C169.704 265.517 178.704 272.888 188.801 271.883L816.114 209.454C826.211 208.449 833.582 199.449 832.577 189.352L826.114 124.412Z" fill="white"/>
<path d="M186.966 274.001C176.618 274.001 167.728 266.13 166.682 255.621L154.12 129.399C153.58 123.977 155.184 118.669 158.638 114.454C162.09 110.238 166.978 107.62 172.4 107.08L799.712 44.6511C810.904 43.5271 820.918 51.736 822.032 62.93L834.593 189.152C835.133 194.574 833.529 199.882 830.076 204.097C826.624 208.313 821.736 210.931 816.314 211.471L189.001 273.9C188.318 273.968 187.639 274.001 186.966 274.001ZM801.745 48.603C801.205 48.603 800.662 48.6301 800.114 48.6841L172.801 111.113C168.456 111.546 164.54 113.644 161.774 117.022C159.008 120.4 157.721 124.653 158.154 128.998L170.716 255.22C171.609 264.189 179.642 270.757 188.601 269.867L815.913 207.438C820.259 207.005 824.175 204.907 826.941 201.529C829.707 198.151 830.993 193.898 830.56 189.553L817.999 63.331C817.161 54.91 810.036 48.603 801.745 48.603Z" fill="#231F20"/>
<path d="M670.713 59.5527L674.746 59.1515L690.942 221.941L686.908 222.342L670.713 59.5527Z" fill="#231F20"/>
<path d="M206.106 158.57C213.082 158.57 218.738 152.914 218.738 145.938C218.738 138.961 213.082 133.306 206.106 133.306C199.129 133.306 193.474 138.961 193.474 145.938C193.474 152.914 199.129 158.57 206.106 158.57Z" fill="#5DFF87"/>
<path d="M206.078 160.598C202.705 160.598 199.463 159.445 196.818 157.279C193.789 154.798 191.907 151.286 191.519 147.39C190.719 139.347 196.611 132.152 204.653 131.352C212.699 130.549 219.89 136.444 220.692 144.487C221.492 152.53 215.599 159.725 207.557 160.525C207.063 160.574 206.569 160.598 206.078 160.598ZM206.113 135.332C205.763 135.332 205.411 135.349 205.055 135.384C199.237 135.963 194.974 141.169 195.552 146.988C195.832 149.807 197.194 152.347 199.386 154.142C201.577 155.937 204.342 156.77 207.155 156.491C212.974 155.912 217.237 150.706 216.659 144.887C216.115 139.424 211.492 135.332 206.113 135.332Z" fill="#231F20"/>
<path d="M249.543 154.247C256.52 154.247 262.175 148.591 262.175 141.615C262.175 134.638 256.52 128.983 249.543 128.983C242.567 128.983 236.911 134.638 236.911 141.615C236.911 148.591 242.567 154.247 249.543 154.247Z" fill="#5DFF87"/>
<path d="M249.531 156.274C242.096 156.274 235.708 150.619 234.956 143.066C234.156 135.023 240.049 127.828 248.091 127.028C251.986 126.64 255.801 127.792 258.83 130.274C261.859 132.755 263.741 136.267 264.129 140.163C264.929 148.206 259.036 155.401 250.994 156.201C250.503 156.25 250.015 156.274 249.531 156.274ZM249.563 131.009C249.208 131.009 248.851 131.027 248.494 131.062C242.675 131.641 238.412 136.847 238.99 142.666C239.569 148.485 244.772 152.744 250.593 152.169C256.412 151.59 260.675 146.384 260.097 140.565C259.817 137.746 258.455 135.206 256.263 133.411C254.349 131.844 252.003 131.009 249.563 131.009Z" fill="#231F20"/>
<path d="M292.979 149.924C299.955 149.924 305.611 144.268 305.611 137.292C305.611 130.315 299.955 124.66 292.979 124.66C286.002 124.66 280.347 130.315 280.347 137.292C280.347 144.268 286.002 149.924 292.979 149.924Z" fill="#5DFF87"/>
<path d="M292.969 151.952C285.533 151.952 279.145 146.297 278.393 138.744C277.593 130.701 283.486 123.506 291.528 122.706C295.423 122.317 299.238 123.47 302.267 125.952C305.296 128.433 307.178 131.945 307.566 135.841C307.955 139.737 306.801 143.551 304.321 146.58C301.84 149.609 298.328 151.491 294.432 151.879C293.941 151.928 293.452 151.952 292.969 151.952ZM292.999 126.686C292.644 126.686 292.287 126.704 291.93 126.739C286.111 127.318 281.848 132.524 282.426 138.343C283.005 144.161 288.199 148.424 294.03 147.846C296.849 147.565 299.389 146.204 301.184 144.012C302.979 141.821 303.813 139.061 303.533 136.242C303.253 133.423 301.891 130.883 299.699 129.088C297.785 127.521 295.44 126.686 292.999 126.686Z" fill="#231F20"/>
<path d="M717.88 878.956L724.69 817.749C725.812 807.664 718.546 798.579 708.461 797.457L81.9147 727.75C71.8297 726.628 62.7447 733.894 61.6227 743.979L54.8127 805.186L47.5967 870.047C46.4747 880.132 53.7407 889.217 63.8257 890.339L690.372 960.047C700.457 961.169 709.542 953.903 710.664 943.818L717.88 878.956Z" fill="white"/>
<path d="M692.419 962.186C691.669 962.186 690.911 962.144 690.148 962.06L63.6026 892.352C58.1866 891.749 53.3306 889.074 49.9266 884.819C46.5236 880.564 44.9806 875.237 45.5826 869.822L59.6076 743.754C60.8516 732.575 70.9436 724.485 82.1386 725.735L708.684 795.443C714.1 796.045 718.956 798.72 722.36 802.976C725.764 807.232 727.306 812.558 726.704 817.973L719.894 879.18L717.879 878.956L719.894 879.18L712.678 944.041C711.52 954.458 702.665 962.186 692.419 962.186ZM79.8706 729.663C71.6596 729.663 64.5656 735.855 63.6376 744.203L49.6126 870.271C49.1296 874.61 50.3656 878.878 53.0916 882.288C55.8196 885.698 59.7106 887.842 64.0496 888.325L690.596 958.033C699.571 959.031 707.653 952.553 708.65 943.595L722.675 817.527C723.158 813.188 721.922 808.92 719.196 805.51C716.468 802.1 712.577 799.957 708.238 799.474L81.6916 729.766C81.0796 729.696 80.4716 729.663 79.8706 729.663Z" fill="#231F20"/>
<path d="M561.381 945.706L579.474 783.112L583.503 783.56L565.41 946.154L561.381 945.706Z" fill="#231F20"/>
<path d="M107.005 783.398C113.982 783.398 119.637 777.743 119.637 770.766C119.637 763.79 113.982 758.134 107.005 758.134C100.029 758.134 94.373 763.79 94.373 770.766C94.373 777.743 100.029 783.398 107.005 783.398Z" fill="#231F20"/>
<path d="M107.017 785.426C106.477 785.426 105.933 785.396 105.384 785.335C97.3515 784.441 91.5425 777.179 92.4365 769.146C93.3315 761.111 100.595 755.308 108.627 756.198C116.659 757.092 122.468 764.354 121.574 772.387C120.741 779.873 114.379 785.426 107.017 785.426ZM106.998 760.161C101.671 760.161 97.0675 764.179 96.4655 769.594C95.8185 775.406 100.021 780.66 105.833 781.307C111.632 781.952 116.897 777.751 117.545 771.939C118.192 766.127 113.99 760.873 108.178 760.226C107.782 760.182 107.388 760.161 106.998 760.161Z" fill="#231F20"/>
<path d="M150.389 788.225C157.365 788.225 163.021 782.569 163.021 775.593C163.021 768.616 157.365 762.961 150.389 762.961C143.412 762.961 137.757 768.616 137.757 775.593C137.757 782.569 143.412 788.225 150.389 788.225Z" fill="#231F20"/>
<path d="M150.401 790.252C149.861 790.252 149.317 790.222 148.768 790.161C140.735 789.267 134.926 782.005 135.82 773.972C136.715 765.938 143.98 760.13 152.01 761.024C160.043 761.918 165.852 769.18 164.958 777.213C164.125 784.699 157.763 790.252 150.401 790.252ZM150.381 764.987C145.054 764.987 140.451 769.005 139.849 774.42C139.202 780.232 143.405 785.486 149.217 786.133C155.018 786.78 160.281 782.577 160.929 776.765C161.577 770.953 157.373 765.699 151.561 765.052C151.165 765.009 150.771 764.987 150.381 764.987Z" fill="#231F20"/>
<path d="M193.772 793.052C200.748 793.052 206.404 787.397 206.404 780.42C206.404 773.444 200.748 767.788 193.772 767.788C186.795 767.788 181.14 773.444 181.14 780.42C181.14 787.397 186.795 793.052 193.772 793.052Z" fill="#231F20"/>
<path d="M193.784 795.079C193.244 795.079 192.7 795.049 192.151 794.988C184.118 794.094 178.309 786.832 179.203 778.799C180.098 770.765 187.363 764.96 195.393 765.851C203.425 766.745 209.234 774.007 208.341 782.04C207.509 789.526 201.147 795.079 193.784 795.079ZM193.765 769.814C188.438 769.814 183.835 773.832 183.233 779.247C182.586 785.059 186.789 790.313 192.601 790.96C198.403 791.602 203.666 787.404 204.313 781.592C204.96 775.78 200.756 770.526 194.945 769.879C194.549 769.835 194.154 769.814 193.765 769.814Z" fill="#231F20"/>
<path d="M1021.89 1066.55L1149.55 1060.23C1159.69 1059.73 1167.49 1051.11 1166.99 1040.97L1163.77 975.793L1160.72 914.284C1160.22 904.149 1151.6 896.34 1141.46 896.842L1013.8 903.162L1021.89 1066.55Z" fill="#1D1743"/>
<path d="M1019.97 1068.68L1011.68 901.238L1141.36 894.818C1146.82 894.551 1152.03 896.415 1156.07 900.072C1160.1 903.73 1162.48 908.741 1162.75 914.184L1169.02 1040.87C1169.57 1052.11 1160.88 1061.7 1149.65 1062.26L1019.97 1068.68ZM1015.93 905.085L1023.81 1064.43L1149.45 1058.21C1158.45 1057.76 1165.41 1050.08 1164.97 1041.08L1158.7 914.385C1158.48 910.024 1156.58 906.009 1153.34 903.077C1150.11 900.146 1145.92 898.651 1141.56 898.867L1015.93 905.085Z" fill="#231F20"/>
<path d="M1013.8 903.161L511.822 928.01C501.687 928.512 493.878 937.134 494.38 947.269L497.425 1008.78L500.652 1073.96C501.154 1084.09 509.776 1091.9 519.911 1091.4L1021.89 1066.55L1013.8 903.161Z" fill="white"/>
<path d="M518.978 1093.45C513.911 1093.45 509.09 1091.6 505.308 1088.17C501.269 1084.51 498.897 1079.5 498.627 1074.06L492.356 947.369C491.799 936.135 500.487 926.542 511.721 925.986L1015.73 901.037L1024.01 1068.48L1021.99 1068.58L520.012 1093.43C519.665 1093.44 519.321 1093.45 518.978 1093.45ZM1011.88 905.286L511.922 930.035C502.919 930.481 495.958 938.167 496.404 947.169L502.675 1073.86C502.891 1078.22 504.791 1082.24 508.028 1085.17C511.265 1088.1 515.455 1089.59 519.809 1089.38L1019.77 1064.63L1011.88 905.286Z" fill="#231F20"/>
<path d="M543.445 981.131C535.693 981.131 529.202 975.025 528.813 967.197C528.414 959.124 534.657 952.231 542.729 951.831C546.646 951.637 550.392 952.978 553.294 955.607C556.196 958.236 557.901 961.837 558.095 965.748C558.494 973.821 552.251 980.714 544.179 981.113C543.934 981.125 543.689 981.131 543.445 981.131ZM543.467 955.867C543.288 955.867 543.11 955.871 542.931 955.88C537.09 956.169 532.574 961.156 532.863 966.997C533.153 972.837 538.131 977.363 543.979 977.064C546.809 976.924 549.414 975.691 551.316 973.591C553.217 971.491 554.187 968.777 554.047 965.947C553.907 963.117 552.674 960.512 550.574 958.611C548.608 956.831 546.101 955.867 543.467 955.867Z" fill="#231F20"/>
<path d="M587.034 978.973C583.393 978.973 579.93 977.641 577.213 975.179C574.311 972.551 572.606 968.95 572.412 965.039C572.218 961.129 573.558 957.377 576.187 954.475C578.815 951.573 582.416 949.868 586.327 949.674C590.244 949.479 593.99 950.821 596.892 953.45C599.794 956.079 601.499 959.68 601.693 963.591C602.092 971.664 595.849 978.557 587.777 978.956C587.529 978.967 587.281 978.973 587.034 978.973ZM587.065 953.708C586.886 953.708 586.708 953.712 586.529 953.721C583.699 953.861 581.094 955.095 579.192 957.194C577.291 959.294 576.321 962.008 576.462 964.837C576.602 967.667 577.835 970.272 579.935 972.173C582.034 974.075 584.75 975.051 587.578 974.904C590.408 974.764 593.013 973.531 594.915 971.431C596.816 969.331 597.786 966.617 597.646 963.787C597.506 960.957 596.273 958.352 594.173 956.451C592.205 954.672 589.698 953.708 587.065 953.708Z" fill="#231F20"/>
<path d="M630.633 976.814C626.992 976.814 623.529 975.482 620.811 973.02C617.909 970.392 616.204 966.791 616.01 962.88C615.816 958.969 617.157 955.217 619.785 952.316C622.413 949.414 626.014 947.709 629.925 947.515C633.821 947.324 637.588 948.662 640.49 951.291C643.392 953.919 645.097 957.52 645.291 961.431C645.485 965.342 644.144 969.094 641.516 971.995C638.888 974.897 635.287 976.602 631.376 976.796C631.128 976.809 630.88 976.814 630.633 976.814ZM630.663 951.55C630.484 951.55 630.306 951.554 630.126 951.564C627.297 951.704 624.691 952.937 622.79 955.037C620.889 957.137 619.919 959.851 620.059 962.681C620.199 965.51 621.432 968.116 623.532 970.017C625.633 971.919 628.351 972.894 631.176 972.748C634.005 972.608 636.611 971.375 638.512 969.275C640.413 967.175 641.383 964.461 641.243 961.631C641.103 958.802 639.87 956.196 637.77 954.295C635.803 952.514 633.297 951.55 630.663 951.55Z" fill="#231F20"/>
<path d="M936.419 152.05V204.715H939.3V152.05C938.828 152.109 938.348 152.144 937.86 152.144C937.371 152.144 936.891 152.11 936.419 152.05Z" fill="#231F20"/>
<path d="M939.3 129.387V76.7219H936.419V129.387C936.891 129.328 937.371 129.293 937.859 129.293C938.348 129.293 938.827 129.327 939.3 129.387Z" fill="#231F20"/>
<path d="M949.191 142.159H1001.86V139.278H949.191C949.25 139.75 949.285 140.23 949.285 140.718C949.285 141.206 949.25 141.687 949.191 142.159Z" fill="#231F20"/>
<path d="M926.528 139.278H873.863V142.159H926.528C926.469 141.687 926.434 141.207 926.434 140.719C926.434 140.231 926.468 139.75 926.528 139.278Z" fill="#231F20"/>
<path d="M930.865 131.687L893.625 94.447L891.588 96.484L928.828 133.724C929.419 132.963 930.103 132.278 930.865 131.687Z" fill="#231F20"/>
<path d="M944.854 149.749L982.094 186.989L984.13 184.952L946.891 147.712C946.301 148.474 945.616 149.159 944.854 149.749Z" fill="#231F20"/>
<path d="M946.891 133.724L984.13 96.484L982.094 94.447L944.854 131.687C945.616 132.278 946.301 132.963 946.891 133.724Z" fill="#231F20"/>
<path d="M928.828 147.713L891.588 184.953L893.625 186.99L930.865 149.75C930.103 149.159 929.419 148.474 928.828 147.713Z" fill="#231F20"/>
<path d="M1008.94 415.777L1135.72 431.991C1145.79 433.278 1154.99 426.162 1156.28 416.097L1164.55 351.363L1172.37 290.276C1173.65 280.211 1166.54 271.008 1156.47 269.721L1029.69 253.507L1008.94 415.777Z" fill="#1D1743"/>
<path d="M1138.06 434.168C1137.21 434.168 1136.34 434.113 1135.46 434.001L1006.67 417.53L1027.94 251.239L1156.73 267.711C1167.89 269.138 1175.8 279.376 1174.38 290.533L1158.29 416.354C1156.97 426.638 1148.17 434.168 1138.06 434.168ZM1011.2 414.023L1135.98 429.981C1144.93 431.126 1153.12 424.78 1154.26 415.84L1170.35 290.019C1171.5 281.079 1165.16 272.875 1156.21 271.731L1031.44 255.774L1011.2 414.023Z" fill="#231F20"/>
<path d="M1029.69 253.507L531.154 189.75C521.089 188.463 511.886 195.579 510.599 205.644L502.787 266.731L494.508 331.465C493.221 341.53 500.337 350.733 510.402 352.02L1008.94 415.777L1029.69 253.507Z" fill="white"/>
<path d="M1010.69 418.044L1008.68 417.787L510.145 354.03C504.74 353.339 499.927 350.584 496.594 346.274C493.261 341.964 491.806 336.613 492.496 331.208L508.588 205.387C509.279 199.982 512.034 195.17 516.345 191.837C520.657 188.504 526.008 187.047 531.41 187.74L1031.95 251.754L1010.69 418.044ZM528.79 191.625C525.192 191.625 521.717 192.806 518.824 195.042C515.37 197.713 513.163 201.569 512.609 205.899L496.517 331.72C495.963 336.051 497.128 340.338 499.799 343.792C502.471 347.246 506.326 349.454 510.657 350.007L1007.18 413.507L1027.42 255.258L530.895 191.758C530.192 191.67 529.488 191.625 528.79 191.625Z" fill="#231F20"/>
<path d="M555.565 247.833C554.938 247.833 554.308 247.793 553.676 247.712C545.658 246.687 539.97 239.33 540.994 231.313C541.491 227.429 543.471 223.971 546.567 221.576C549.666 219.18 553.511 218.135 557.393 218.632C561.278 219.129 564.736 221.108 567.13 224.205C569.526 227.303 570.57 231.147 570.074 235.031C569.577 238.915 567.597 242.373 564.501 244.768C561.908 246.774 558.79 247.833 555.565 247.833ZM555.513 222.565C553.179 222.565 550.924 223.331 549.048 224.782C546.807 226.514 545.375 229.016 545.016 231.826C544.274 237.626 548.39 242.949 554.19 243.691C559.982 244.43 565.312 240.316 566.054 234.517C566.413 231.706 565.658 228.925 563.925 226.684C562.192 224.443 559.69 223.011 556.88 222.652C556.423 222.594 555.966 222.565 555.513 222.565Z" fill="#231F20"/>
<path d="M598.863 253.371C598.236 253.371 597.605 253.331 596.973 253.25C593.089 252.753 589.631 250.774 587.237 247.677C584.841 244.58 583.797 240.735 584.293 236.851C585.318 228.834 592.681 223.142 600.692 224.17C608.71 225.195 614.398 232.552 613.374 240.569C612.877 244.453 610.897 247.911 607.8 250.306C605.207 252.311 602.089 253.371 598.863 253.371ZM598.826 228.103C593.572 228.103 588.998 232.018 588.314 237.364C587.572 243.165 591.687 248.487 597.487 249.229C600.293 249.59 603.079 248.833 605.32 247.099C607.561 245.367 608.993 242.865 609.352 240.055C610.094 234.255 605.978 228.932 600.178 228.19C599.725 228.132 599.273 228.103 598.826 228.103Z" fill="#231F20"/>
<path d="M642.143 258.907C641.525 258.907 640.902 258.868 640.273 258.787C636.389 258.29 632.931 256.311 630.536 253.214C628.141 250.116 627.096 246.271 627.593 242.387C628.619 234.37 635.978 228.676 643.992 229.707C652.01 230.732 657.698 238.089 656.674 246.106C655.727 253.496 649.403 258.907 642.143 258.907ZM642.125 233.641C636.871 233.641 632.297 237.556 631.613 242.901C631.253 245.712 632.009 248.493 633.742 250.734C635.474 252.975 637.976 254.407 640.786 254.766C646.585 255.508 651.91 251.393 652.651 245.592C653.393 239.792 649.277 234.469 643.477 233.727C643.024 233.669 642.571 233.641 642.125 233.641Z" fill="#231F20"/>
<path d="M395.746 993.752C418.98 993.752 437.816 974.917 437.816 951.682C437.816 928.447 418.98 909.612 395.746 909.612C372.511 909.612 353.676 928.447 353.676 951.682C353.676 974.917 372.511 993.752 395.746 993.752Z" fill="white"/>
<path d="M395.746 995.778C371.432 995.778 351.65 975.996 351.65 951.681C351.65 927.367 371.431 907.585 395.746 907.585C420.061 907.585 439.842 927.367 439.842 951.681C439.842 975.997 420.061 995.778 395.746 995.778ZM395.746 911.639C373.667 911.639 355.703 929.602 355.703 951.681C355.703 973.76 373.667 991.724 395.746 991.724C417.825 991.724 435.789 973.761 435.789 951.681C435.789 929.601 417.825 911.639 395.746 911.639Z" fill="#231F20"/>
<path d="M417.356 989.275L413.37 988.542C413.384 988.463 414.782 980.606 413.146 972.362C411.042 961.758 405.063 955.47 395.377 953.674L396.115 949.689C423.393 954.746 417.419 988.93 417.356 989.275Z" fill="#231F20"/>
<path d="M436.479 954.85C436.418 954.798 430.313 949.659 422.356 946.954C412.121 943.474 403.686 945.507 397.288 952.998L394.206 950.365C412.225 929.272 438.842 951.537 439.107 951.764L436.479 954.85Z" fill="#231F20"/>
<path d="M393.836 952.358C384.576 926.207 417.168 914.289 417.498 914.171L418.856 917.99C418.781 918.017 411.277 920.734 404.956 926.273C396.824 933.398 394.368 941.719 397.656 951.005L393.836 952.358Z" fill="#231F20"/>
<path d="M395.377 953.674C368.1 948.617 374.073 914.433 374.137 914.089L378.123 914.822C378.109 914.901 376.711 922.758 378.347 931.001C380.451 941.605 386.43 947.893 396.116 949.689L395.377 953.674Z" fill="#231F20"/>
<path d="M378.439 962.071C364.898 962.071 352.566 951.754 352.385 951.599L355.013 948.513C355.074 948.564 361.179 953.704 369.136 956.409C379.373 959.888 387.806 957.856 394.205 950.364L397.287 952.997C391.506 959.766 384.836 962.071 378.439 962.071Z" fill="#231F20"/>
<path d="M373.994 989.192L372.636 985.373C372.711 985.346 380.215 982.628 386.536 977.09C394.668 969.965 397.124 961.644 393.836 952.358L397.656 951.005C406.916 977.156 374.324 989.075 373.994 989.192Z" fill="#231F20"/>
</svg>
